<svg width="72" height="72" fill="none" xmlns="http://www.w3.org/2000/svg"><circle cx="36" cy="36" r="36" fill="url(#a)"/><path fill-rule="evenodd" clip-rule="evenodd" d="M52.129 39.226a5.154 5.154 0 0 1-1.904 4c3.283.62 5.775 3.506 5.775 6.968V56H41.161v-7.42a.969.969 0 0 0-.968-.967h-.967v1.15l-1.802.444c-.08.214-.17.428-.268.641l.962 1.59-3.453 3.454-1.59-.963c-.214.1-.428.19-.642.268L31.99 56h-4.883l-.442-1.802a8.558 8.558 0 0 1-.642-.268l-1.59.962-3.454-3.453.963-1.59a8.664 8.664 0 0 1-.268-.642l-1.803-.443V43.88l1.803-.443c.079-.214.169-.428.268-.642l-.963-1.59.69-.69h-1.153a1.938 1.938 0 0 1-1.935-1.935v-1.29c0-1.068.868-1.936 1.935-1.936h1.29a.645.645 0 0 0 .646-.645v-.645H16v-3.226c0-3.009 1.884-5.579 4.532-6.61a4.514 4.514 0 0 1-1.951-3.713A4.522 4.522 0 0 1 23.097 16a4.522 4.522 0 0 1 4.516 4.516 4.514 4.514 0 0 1-1.952 3.713 7.126 7.126 0 0 1 3.887 3.67 7.128 7.128 0 0 1 3.887-3.67 4.514 4.514 0 0 1-1.951-3.713A4.522 4.522 0 0 1 36 16a4.522 4.522 0 0 1 4.516 4.516 4.514 4.514 0 0 1-1.951 3.713c2.647 1.031 4.532 3.601 4.532 6.61v3.226h-6.452v.645c0 .356.29.645.645.645h1.29c1.068 0 1.936.868 1.936 1.935v1.29a1.938 1.938 0 0 1-1.935 1.936h-1.153l.69.69-.964 1.59c.028.06.051.12.075.18.016.04.032.08.05.12h6.286a5.146 5.146 0 0 1-1.758-3.87 5.167 5.167 0 0 1 5.16-5.161 5.167 5.167 0 0 1 5.162 5.16Zm-5.161-3.871a3.875 3.875 0 0 0-3.871 3.87 3.875 3.875 0 0 0 3.87 3.872 3.875 3.875 0 0 0 3.872-3.871 3.875 3.875 0 0 0-3.871-3.871ZM32.774 20.516A3.23 3.23 0 0 1 36 17.29a3.23 3.23 0 0 1 3.226 3.226A3.23 3.23 0 0 1 36 23.742a3.23 3.23 0 0 1-3.226-3.226Zm9.032 10.323A5.813 5.813 0 0 0 36 25.032a5.813 5.813 0 0 0-5.806 5.807v1.935h1.935v-5.161h1.29v5.161h5.162v-5.161h1.29v5.161h1.935V30.84ZM19.872 20.516a3.23 3.23 0 0 1 3.226-3.226 3.23 3.23 0 0 1 3.226 3.226 3.23 3.23 0 0 1-3.226 3.226 3.23 3.23 0 0 1-3.226-3.226Zm3.226 4.516a5.813 5.813 0 0 0-5.807 5.807v1.935h1.936v-5.161h1.29v5.161h5.161v-5.161h1.29v5.161h1.936V30.84a5.813 5.813 0 0 0-5.806-5.807Zm-2.58 14.194a.645.645 0 0 1-.646-.645v-1.29c0-.357.289-.646.645-.646h1.29a1.938 1.938 0 0 0 1.936-1.935v-.645h11.613v.645c0 1.067.868 1.935 1.935 1.935h1.29c.357 0 .646.29.646.645v1.29a.645.645 0 0 1-.645.646h-2.444l-1.472-1.472-1.59.962a8.664 8.664 0 0 0-.642-.268l-.443-1.803h-4.883l-.443 1.803c-.214.08-.429.169-.642.268l-1.59-.962-1.473 1.472h-2.443Zm15.906 8.898 1.512-.372v-.14H35.21a5.813 5.813 0 0 1-5.662 4.517 5.813 5.813 0 0 1-5.806-5.806 5.813 5.813 0 0 1 5.806-5.807c1.936 0 3.74.985 4.813 2.581h1.503l-.017-.034-.167-.322.81-1.338-2.022-2.021-1.338.81-.321-.167a7.084 7.084 0 0 0-1.113-.466l-.346-.11-.372-1.514h-2.86l-.37 1.514-.347.11a7.018 7.018 0 0 0-1.113.465l-.32.167-1.339-.81-2.021 2.022.81 1.338-.168.32c-.192.371-.349.746-.465 1.114l-.11.346-1.514.372v2.86l1.514.37.109.347c.117.368.273.743.466 1.113l.167.32-.81 1.339 2.021 2.021 1.338-.81.322.168c.37.192.744.349 1.114.466l.345.11.372 1.513h2.86l.37-1.514.346-.109a7.037 7.037 0 0 0 1.113-.466l.322-.167 1.338.81 2.021-2.021-.81-1.339.167-.32c.193-.37.35-.745.467-1.115l.11-.345Zm-5.333-.639a1.931 1.931 0 0 1-3.477-1.162c0-1.068.868-1.936 1.935-1.936.046 0 .09.008.135.016.026.004.051.009.077.012a2.228 2.228 0 0 0-.212.94c0 .993.649 1.829 1.542 2.13Zm-1.542-4.388c.429 0 .853.087 1.246.25.305-.154.647-.25 1.012-.25h.898a4.533 4.533 0 0 0-3.156-1.29 4.522 4.522 0 0 0-4.516 4.516 4.522 4.522 0 0 0 4.516 4.516 4.521 4.521 0 0 0 4.327-3.226h-1.371a3.226 3.226 0 1 1-2.956-4.516ZM54.71 54.71h-1.936v-7.097h-1.29v7.097h-9.032v-6.13a2.26 2.26 0 0 0-2.258-2.257h-8.388a.969.969 0 0 1 0-1.936h17.097a5.813 5.813 0 0 1 5.807 5.807v4.516ZM56 28.258a4.522 4.522 0 0 0-4.516-4.516h-2.58a4.522 4.522 0 0 0-4.517 4.516v4.516h7.097A4.522 4.522 0 0 0 56 28.258Zm-10.323 0a3.23 3.23 0 0 1 3.226-3.226h2.58a3.23 3.23 0 0 1 3.227 3.226 3.23 3.23 0 0 1-3.226 3.226h-5.807v-3.226Zm1.29.645h1.291v1.29h-1.29v-1.29Zm3.872 0h-1.29v1.29h1.29v-1.29Zm1.29 0h1.29v1.29h-1.29v-1.29Zm1.29-2.58h-6.451v1.29h6.451v-1.29Z" fill="#fff"/><defs><linearGradient id="a" x1="-35.849" y1="35.849" x2="35.849" y2="107.547" gradientUnits="userSpaceOnUse"><stop stop-color="#33D35E"/><stop offset="1" stop-color="#2AB6D9"/></linearGradient></defs></svg>