<svg width="72" height="72" fill="none" xmlns="http://www.w3.org/2000/svg"><circle cx="36" cy="36" r="36" fill="url(#a)"/><path fill-rule="evenodd" clip-rule="evenodd" d="M47.725 19.092v7.57c5.23.286 9.393 4.365 9.393 9.338 0 4.973-4.162 9.052-9.393 9.338v7.57A3.095 3.095 0 0 1 44.633 56H27.098a3.095 3.095 0 0 1-3.091-3.092v-7.24a.587.587 0 1 1 1.174 0v3.522h21.37v-3.852a10.478 10.478 0 0 1-2.89-.568l-4.383 2.391c-.466.254-1.013-.22-.833-.716l1.308-3.596h-6.705a.591.591 0 0 1-.416-.172l-4.696-4.696a.593.593 0 0 1-.172-.415V24.728c0-.324.263-.587.587-.587h15.03c.324 0 .587.263.587.587v2.402c.819-.258 1.685-.418 2.583-.468v-4.478H25.18v20.704a.587.587 0 1 1-1.174 0V19.092A3.096 3.096 0 0 1 27.099 16h17.534a3.096 3.096 0 0 1 3.092 3.092Zm-3.092 35.734a1.92 1.92 0 0 0 1.918-1.918v-2.544H25.18v2.544a1.92 1.92 0 0 0 1.918 1.918h17.534ZM25.18 21.01v-1.918a1.92 1.92 0 0 1 1.918-1.918h17.534a1.92 1.92 0 0 1 1.918 1.918v1.918H25.18Zm4.587 17.143 2.693 2.692v-2.692h-2.692Zm3.867 3.522v-4.11a.587.587 0 0 0-.587-.587h-4.11V25.315h13.855v2.265a10.14 10.14 0 0 0-1.704.985.584.584 0 0 0-.213-.04h-3.131a.587.587 0 1 0 0 1.174h2.023a9.427 9.427 0 0 0-1.467 1.957h-6.819a.587.587 0 1 0 0 1.174h6.266a8.788 8.788 0 0 0-.59 3.17c0 2.083.717 4.054 2.044 5.675h-5.567ZM43.82 43.58a9.343 9.343 0 0 0 3.318.601c4.855 0 8.806-3.67 8.806-8.18s-3.95-8.18-8.806-8.18c-4.856 0-8.806 3.67-8.806 8.18 0 2.217.94 4.293 2.647 5.846.177.16.239.41.157.635l-1.056 2.905 3.251-1.773a.587.587 0 0 1 .49-.034Zm-9.207-25.074h2.505a.587.587 0 1 1 0 1.174h-2.505a.587.587 0 1 1 0-1.174Zm2.505 32.564h-2.505a.587.587 0 0 0-.587.587v1.878c0 .325.263.587.587.587h2.505a.587.587 0 0 0 .587-.587v-1.878a.587.587 0 0 0-.587-.587Zm-.587 1.878h-1.33v-.704h1.33v.704ZM35.24 28.524h-3.758a.587.587 0 1 0 0 1.175h3.758a.587.587 0 1 0 0-1.175Zm-3.758 6.263h4.384a.587.587 0 1 1 0 1.174h-4.384a.587.587 0 1 1 0-1.174Zm18.748-.666a.587.587 0 1 1-1.174 0v-.626c0-.712-.58-1.291-1.292-1.291h-.94c-.884 0-1.604.72-1.604 1.604 0 .885.72 1.605 1.605 1.605h.626a2.782 2.782 0 0 1 2.779 2.779c0 1.44-1.101 2.627-2.505 2.765v1.305a.587.587 0 1 1-1.174 0v-1.291h-.04a2.469 2.469 0 0 1-2.465-2.466.587.587 0 1 1 1.174 0c0 .712.58 1.291 1.291 1.291h.94c.885 0 1.605-.72 1.605-1.604 0-.885-.72-1.605-1.605-1.605h-.626a2.782 2.782 0 0 1-2.78-2.779c0-1.44 1.102-2.627 2.506-2.765v-1.305a.587.587 0 1 1 1.174 0v1.291h.039a2.469 2.469 0 0 1 2.466 2.466v.626Z" fill="#fff"/><defs><linearGradient id="a" x1="-35.849" y1="35.849" x2="35.849" y2="107.547" gradientUnits="userSpaceOnUse"><stop stop-color="#33D35E"/><stop offset="1" stop-color="#2AB6D9"/></linearGradient></defs></svg>