<svg width="21" height="18" fill="none" xmlns="http://www.w3.org/2000/svg"><path d="M20.667 2.797a8.192 8.192 0 0 1-2.357.646 4.11 4.11 0 0 0 1.804-2.27 8.22 8.22 0 0 1-2.606.996A4.096 4.096 0 0 0 14.513.873c-2.649 0-4.595 2.472-3.997 5.038a11.648 11.648 0 0 1-8.457-4.287 4.109 4.109 0 0 0 1.27 5.478A4.086 4.086 0 0 1 1.47 6.59c-.045 1.901 1.317 3.68 3.29 4.075a4.111 4.111 0 0 1-1.853.07 4.106 4.106 0 0 0 3.834 2.85 8.25 8.25 0 0 1-6.075 1.7 11.616 11.616 0 0 0 6.29 1.843c7.618 0 11.922-6.434 11.662-12.205a8.353 8.353 0 0 0 2.048-2.125Z" fill="#fff"/></svg>